<svg width="46" height="45" viewBox="0 0 46 45" fill="none" xmlns="http://www.w3.org/2000/svg">
<path fill-rule="evenodd" clip-rule="evenodd" d="M42.8792 21.2773C47.0402 19.0014 47.0402 13.0252 42.8792 10.7492L24.5874 0.744287C20.589 -1.4427 15.7082 1.45088 15.7082 6.00831V8.47214C6.81522 9.78906 0 17.2881 0 26.3418C0 36.3243 8.28504 44.4166 18.5052 44.4166C28.7253 44.4166 37.0103 36.3243 37.0103 26.3418C37.0103 25.7328 36.9795 25.1307 36.9193 24.5372L42.8792 21.2773ZM24.5874 31.2822L36.9193 24.5372C35.9921 15.402 28.1017 8.26702 18.5052 8.26702C17.5544 8.26702 16.6203 8.33706 15.7082 8.47214V26.0182C15.7082 30.5757 20.589 33.4692 24.5874 31.2822Z" fill="#E7003E"/>
</svg>
