<svg width="322" height="47" viewBox="0 0 322 47" fill="none" xmlns="http://www.w3.org/2000/svg">
<path d="M84.68 33.16V38H64.96V9.6H84.32V14.44H70.48V21.28H82.44V25.76H70.48V33.16H84.68ZM97.7938 38.4C96.0871 38.4 94.5538 38.12 93.1938 37.56C91.8338 36.9733 90.6738 36.1733 89.7138 35.16C88.7538 34.12 88.0071 32.9467 87.4738 31.64C86.9671 30.3333 86.7138 28.96 86.7138 27.52C86.7138 25.5467 87.1538 23.7467 88.0338 22.12C88.9404 20.4667 90.2204 19.1467 91.8738 18.16C93.5271 17.1733 95.4871 16.68 97.7538 16.68C100.02 16.68 101.967 17.1733 103.594 18.16C105.22 19.1467 106.434 20.44 107.234 22.04L101.994 23.64C101.54 22.8667 100.94 22.28 100.194 21.88C99.4471 21.4533 98.6204 21.24 97.7138 21.24C96.7004 21.24 95.7671 21.5067 94.9138 22.04C94.0871 22.5467 93.4338 23.28 92.9538 24.24C92.4738 25.1733 92.2338 26.2667 92.2338 27.52C92.2338 28.7467 92.4738 29.84 92.9538 30.8C93.4604 31.7333 94.1271 32.48 94.9538 33.04C95.7804 33.5733 96.7004 33.84 97.7138 33.84C98.3538 33.84 98.9538 33.7333 99.5138 33.52C100.1 33.3067 100.62 33.0133 101.074 32.64C101.527 32.2667 101.86 31.84 102.074 31.36L107.314 32.96C106.834 34 106.127 34.9333 105.194 35.76C104.287 36.5867 103.207 37.24 101.954 37.72C100.727 38.1733 99.3404 38.4 97.7938 38.4ZM120.097 38.4C118.39 38.4 116.857 38.12 115.497 37.56C114.137 36.9733 112.977 36.1733 112.017 35.16C111.083 34.1467 110.363 32.9867 109.857 31.68C109.35 30.3733 109.097 29 109.097 27.56C109.097 26.0933 109.35 24.7067 109.857 23.4C110.363 22.0933 111.083 20.9333 112.017 19.92C112.977 18.9067 114.137 18.12 115.497 17.56C116.857 16.9733 118.39 16.68 120.097 16.68C121.803 16.68 123.323 16.9733 124.657 17.56C126.017 18.12 127.177 18.9067 128.137 19.92C129.097 20.9333 129.817 22.0933 130.297 23.4C130.803 24.7067 131.057 26.0933 131.057 27.56C131.057 29 130.803 30.3733 130.297 31.68C129.817 32.9867 129.097 34.1467 128.137 35.16C127.203 36.1733 126.057 36.9733 124.697 37.56C123.337 38.12 121.803 38.4 120.097 38.4ZM114.617 27.56C114.617 28.7867 114.857 29.88 115.337 30.84C115.817 31.7733 116.47 32.5067 117.297 33.04C118.123 33.5733 119.057 33.84 120.097 33.84C121.11 33.84 122.03 33.5733 122.857 33.04C123.683 32.48 124.337 31.7333 124.817 30.8C125.323 29.84 125.577 28.7467 125.577 27.52C125.577 26.32 125.323 25.24 124.817 24.28C124.337 23.32 123.683 22.5733 122.857 22.04C122.03 21.5067 121.11 21.24 120.097 21.24C119.057 21.24 118.123 21.52 117.297 22.08C116.47 22.6133 115.817 23.36 115.337 24.32C114.857 25.2533 114.617 26.3333 114.617 27.56ZM154.154 38H148.794V26.24C148.794 24.56 148.501 23.3333 147.914 22.56C147.328 21.7867 146.514 21.4 145.474 21.4C144.754 21.4 144.021 21.5867 143.274 21.96C142.554 22.3333 141.901 22.8533 141.314 23.52C140.728 24.16 140.301 24.9067 140.034 25.76V38H134.674V17.04H139.514V20.92C140.048 20.0133 140.728 19.2533 141.554 18.64C142.381 18 143.328 17.52 144.394 17.2C145.488 16.8533 146.634 16.68 147.834 16.68C149.141 16.68 150.208 16.92 151.034 17.4C151.888 17.8533 152.528 18.48 152.954 19.28C153.408 20.0533 153.714 20.9333 153.874 21.92C154.061 22.9067 154.154 23.9067 154.154 24.92V38ZM168.495 38.4C166.788 38.4 165.255 38.12 163.895 37.56C162.535 36.9733 161.375 36.1733 160.415 35.16C159.482 34.1467 158.762 32.9867 158.255 31.68C157.748 30.3733 157.495 29 157.495 27.56C157.495 26.0933 157.748 24.7067 158.255 23.4C158.762 22.0933 159.482 20.9333 160.415 19.92C161.375 18.9067 162.535 18.12 163.895 17.56C165.255 16.9733 166.788 16.68 168.495 16.68C170.202 16.68 171.722 16.9733 173.055 17.56C174.415 18.12 175.575 18.9067 176.535 19.92C177.495 20.9333 178.215 22.0933 178.695 23.4C179.202 24.7067 179.455 26.0933 179.455 27.56C179.455 29 179.202 30.3733 178.695 31.68C178.215 32.9867 177.495 34.1467 176.535 35.16C175.602 36.1733 174.455 36.9733 173.095 37.56C171.735 38.12 170.202 38.4 168.495 38.4ZM163.015 27.56C163.015 28.7867 163.255 29.88 163.735 30.84C164.215 31.7733 164.868 32.5067 165.695 33.04C166.522 33.5733 167.455 33.84 168.495 33.84C169.508 33.84 170.428 33.5733 171.255 33.04C172.082 32.48 172.735 31.7333 173.215 30.8C173.722 29.84 173.975 28.7467 173.975 27.52C173.975 26.32 173.722 25.24 173.215 24.28C172.735 23.32 172.082 22.5733 171.255 22.04C170.428 21.5067 169.508 21.24 168.495 21.24C167.455 21.24 166.522 21.52 165.695 22.08C164.868 22.6133 164.215 23.36 163.735 24.32C163.255 25.2533 163.015 26.3333 163.015 27.56Z" fill="#00B74A"/>
<path d="M206.401 38V19.36L199.121 33.24H196.041L188.761 19.36V38H183.241V9.6H189.161L197.561 25.76L206.041 9.6H211.921V38H206.401ZM226.699 38.4C225.019 38.4 223.499 38.12 222.139 37.56C220.779 36.9733 219.619 36.1867 218.659 35.2C217.699 34.1867 216.952 33.04 216.419 31.76C215.912 30.4533 215.659 29.08 215.659 27.64C215.659 25.64 216.099 23.8133 216.979 22.16C217.886 20.5067 219.166 19.1867 220.819 18.2C222.499 17.1867 224.472 16.68 226.739 16.68C229.032 16.68 230.992 17.1867 232.619 18.2C234.246 19.1867 235.486 20.5067 236.339 22.16C237.219 23.7867 237.659 25.5467 237.659 27.44C237.659 27.76 237.646 28.0933 237.619 28.44C237.592 28.76 237.566 29.0267 237.539 29.24H221.339C221.446 30.3067 221.752 31.24 222.259 32.04C222.792 32.84 223.459 33.4533 224.259 33.88C225.086 34.28 225.966 34.48 226.899 34.48C227.966 34.48 228.966 34.2267 229.899 33.72C230.859 33.1867 231.512 32.4933 231.859 31.64L236.459 32.92C235.952 33.9867 235.219 34.9333 234.259 35.76C233.326 36.5867 232.219 37.24 230.939 37.72C229.659 38.1733 228.246 38.4 226.699 38.4ZM221.219 25.84H232.179C232.072 24.7733 231.766 23.8533 231.259 23.08C230.779 22.28 230.139 21.6667 229.339 21.24C228.539 20.7867 227.646 20.56 226.659 20.56C225.699 20.56 224.819 20.7867 224.019 21.24C223.246 21.6667 222.606 22.28 222.099 23.08C221.619 23.8533 221.326 24.7733 221.219 25.84ZM253.289 36.92C252.836 37.1067 252.289 37.32 251.649 37.56C251.009 37.8 250.316 37.9867 249.569 38.12C248.849 38.28 248.116 38.36 247.369 38.36C246.382 38.36 245.476 38.1867 244.649 37.84C243.822 37.4933 243.156 36.9467 242.649 36.2C242.169 35.4267 241.929 34.4267 241.929 33.2V21.16H239.169V17.04H241.929V10.24H247.289V17.04H251.689V21.16H247.289V31.4C247.316 32.12 247.516 32.64 247.889 32.96C248.262 33.28 248.729 33.44 249.289 33.44C249.849 33.44 250.396 33.3467 250.929 33.16C251.462 32.9733 251.889 32.8133 252.209 32.68L253.289 36.92ZM268.561 21.68C266.934 21.68 265.481 22 264.201 22.64C262.921 23.2533 262.001 24.1467 261.441 25.32V38H256.081V17.04H261.001V21.52C261.747 20.08 262.694 18.9467 263.841 18.12C264.987 17.2933 266.201 16.84 267.481 16.76C267.774 16.76 268.001 16.76 268.161 16.76C268.321 16.76 268.454 16.7733 268.561 16.8V21.68ZM271.549 38V17.04H276.909V38H271.549ZM271.549 14.12V8.8H276.909V14.12H271.549ZM291.505 38.4C289.798 38.4 288.265 38.12 286.905 37.56C285.545 36.9733 284.385 36.1733 283.425 35.16C282.465 34.12 281.718 32.9467 281.185 31.64C280.678 30.3333 280.425 28.96 280.425 27.52C280.425 25.5467 280.865 23.7467 281.745 22.12C282.651 20.4667 283.931 19.1467 285.585 18.16C287.238 17.1733 289.198 16.68 291.465 16.68C293.731 16.68 295.678 17.1733 297.305 18.16C298.931 19.1467 300.145 20.44 300.945 22.04L295.705 23.64C295.251 22.8667 294.651 22.28 293.905 21.88C293.158 21.4533 292.331 21.24 291.425 21.24C290.411 21.24 289.478 21.5067 288.625 22.04C287.798 22.5467 287.145 23.28 286.665 24.24C286.185 25.1733 285.945 26.2667 285.945 27.52C285.945 28.7467 286.185 29.84 286.665 30.8C287.171 31.7333 287.838 32.48 288.665 33.04C289.491 33.5733 290.411 33.84 291.425 33.84C292.065 33.84 292.665 33.7333 293.225 33.52C293.811 33.3067 294.331 33.0133 294.785 32.64C295.238 32.2667 295.571 31.84 295.785 31.36L301.025 32.96C300.545 34 299.838 34.9333 298.905 35.76C297.998 36.5867 296.918 37.24 295.665 37.72C294.438 38.1733 293.051 38.4 291.505 38.4ZM312.043 38.4C310.256 38.4 308.549 38.1067 306.923 37.52C305.296 36.9333 303.896 36.0667 302.723 34.92L304.643 31.44C305.896 32.4533 307.123 33.2 308.323 33.68C309.549 34.16 310.723 34.4 311.843 34.4C312.883 34.4 313.709 34.2133 314.323 33.84C314.963 33.4667 315.283 32.9067 315.283 32.16C315.283 31.6533 315.109 31.2667 314.763 31C314.416 30.7067 313.909 30.4533 313.243 30.24C312.603 30.0267 311.816 29.7867 310.883 29.52C309.336 29.0133 308.043 28.52 307.003 28.04C305.963 27.56 305.176 26.96 304.643 26.24C304.136 25.4933 303.883 24.5467 303.883 23.4C303.883 22.0133 304.229 20.8267 304.923 19.84C305.643 18.8267 306.629 18.04 307.883 17.48C309.163 16.92 310.656 16.64 312.363 16.64C313.856 16.64 315.269 16.88 316.603 17.36C317.936 17.8133 319.149 18.56 320.243 19.6L318.083 23C317.016 22.1733 316.003 21.5733 315.043 21.2C314.083 20.8 313.109 20.6 312.123 20.6C311.563 20.6 311.029 20.6667 310.523 20.8C310.043 20.9333 309.643 21.16 309.323 21.48C309.029 21.7733 308.883 22.2 308.883 22.76C308.883 23.2667 309.016 23.6667 309.283 23.96C309.576 24.2267 310.003 24.4667 310.563 24.68C311.149 24.8933 311.856 25.1333 312.683 25.4C314.363 25.88 315.776 26.3733 316.923 26.88C318.096 27.3867 318.976 28.0133 319.563 28.76C320.149 29.48 320.443 30.48 320.443 31.76C320.443 33.84 319.683 35.4667 318.163 36.64C316.643 37.8133 314.603 38.4 312.043 38.4Z" fill="#E7003E"/>
<path fill-rule="evenodd" clip-rule="evenodd" d="M42.8792 22.2773C47.0402 20.0014 47.0402 14.0252 42.8792 11.7492L24.5874 1.74429C20.589 -0.442698 15.7082 2.45088 15.7082 7.00831V9.47214C6.81522 10.7891 0 18.2881 0 27.3418C0 37.3243 8.28504 45.4166 18.5052 45.4166C28.7253 45.4166 37.0103 37.3243 37.0103 27.3418C37.0103 26.7328 36.9795 26.1307 36.9193 25.5372L42.8792 22.2773ZM24.5874 32.2822L36.9193 25.5372C35.9921 16.402 28.1017 9.26702 18.5052 9.26702C17.5544 9.26702 16.6203 9.33706 15.7082 9.47214V27.0182C15.7082 31.5757 20.589 34.4692 24.5874 32.2822Z" fill="#E7003E"/>
</svg>
